<svg width="4297" height="2354" xmlns="http://www.w3.org/2000/svg" xmlns:xlink="http://www.w3.org/1999/xlink" xml:space="preserve" overflow="hidden"><g transform="translate(-55 -43)"><rect x="60.9998" y="837" width="4286" height="1555" stroke="#A6A6A6" stroke-width="10.3125" stroke-linecap="square" stroke-linejoin="round" stroke-miterlimit="10" stroke-dasharray="30.9375 10.3125" fill="none"/><text fill="#BFBFBF" font-family="Arial,Arial_MSFontService,sans-serif" font-weight="700" font-size="64" transform="matrix(1 0 0 1 94.4304 916)">Step 2 </text><text fill="#BFBFBF" font-family="Arial,Arial_MSFontService,sans-serif" font-weight="700" font-size="64" transform="matrix(1 0 0 1 304.118 916)">–</text><text fill="#BFBFBF" font-family="Arial,Arial_MSFontService,sans-serif" font-weight="700" font-size="64" transform="matrix(1 0 0 1 94.4304 993)">calculate</text><text fill="#BFBFBF" font-family="Arial,Arial_MSFontService,sans-serif" font-weight="700" font-size="64" transform="matrix(1 0 0 1 94.4304 1070)">postgraduate </text><text fill="#BFBFBF" font-family="Arial,Arial_MSFontService,sans-serif" font-weight="700" font-size="64" transform="matrix(1 0 0 1 94.4304 1147)">initial teacher</text><text fill="#BFBFBF" font-family="Arial,Arial_MSFontService,sans-serif" font-weight="700" font-size="64" transform="matrix(1 0 0 1 94.4304 1224)">trainee need</text><text fill="#BFBFBF" font-family="Arial,Arial_MSFontService,sans-serif" font-weight="700" font-size="64" transform="matrix(1 0 0 1 94.4304 1301)">for 2026/27</text><rect x="60.9998" y="48.0001" width="4286" height="733" stroke="#A6A6A6" stroke-width="10.3125" stroke-linecap="square" stroke-linejoin="round" stroke-miterlimit="10" stroke-dasharray="30.9375 10.3125" fill="none"/><text fill="#BFBFBF" font-family="Arial,Arial_MSFontService,sans-serif" font-weight="700" font-size="64" transform="matrix(1 0 0 1 94.4304 126)">Step 1 </text><text fill="#BFBFBF" font-family="Arial,Arial_MSFontService,sans-serif" font-weight="700" font-size="64" transform="matrix(1 0 0 1 304.118 126)">–</text><text fill="#BFBFBF" font-family="Arial,Arial_MSFontService,sans-serif" font-weight="700" font-size="64" transform="matrix(1 0 0 1 94.4304 203)">calculate</text><text fill="#BFBFBF" font-family="Arial,Arial_MSFontService,sans-serif" font-weight="700" font-size="64" transform="matrix(1 0 0 1 94.4304 280)">teacher</text><text fill="#BFBFBF" font-family="Arial,Arial_MSFontService,sans-serif" font-weight="700" font-size="64" transform="matrix(1 0 0 1 94.4304 357)">demand</text><text fill="#BFBFBF" font-family="Arial,Arial_MSFontService,sans-serif" font-weight="700" font-size="64" transform="matrix(1 0 0 1 94.4304 434)">trajectory</text><text fill="#BFBFBF" font-family="Arial,Arial_MSFontService,sans-serif" font-weight="700" font-size="64" transform="matrix(1 0 0 1 94.4304 511)">from</text><text fill="#BFBFBF" font-family="Arial,Arial_MSFontService,sans-serif" font-weight="700" font-size="64" transform="matrix(1 0 0 1 94.4304 588)">2024/25</text><text fill="#BFBFBF" font-family="Arial,Arial_MSFontService,sans-serif" font-weight="700" font-size="64" transform="matrix(1 0 0 1 94.4304 665)">to 2027/28</text><path d="M1813 1349.83C1813 1320.65 1836.65 1297 1865.83 1297L2493.17 1297C2522.35 1297 2546 1320.65 2546 1349.83L2546 1561.17C2546 1590.35 2522.35 1614 2493.17 1614L1865.83 1614C1836.65 1614 1813 1590.35 1813 1561.17Z" fill="#FBDEDF" fill-rule="evenodd"/><text fill="#262626" font-family="Arial,Arial_MSFontService,sans-serif" font-weight="400" font-size="55" transform="matrix(1 0 0 1 1933 1376)">Teacher leavers and </text><text fill="#262626" font-family="Arial,Arial_MSFontService,sans-serif" font-weight="400" font-size="55" transform="matrix(1 0 0 1 1908.76 1442)">working hour losses in </text><text fill="#262626" font-family="Arial,Arial_MSFontService,sans-serif" font-weight="400" font-size="55" transform="matrix(1 0 0 1 1893.29 1508)">2027/28 (assume these </text><text fill="#262626" font-family="Arial,Arial_MSFontService,sans-serif" font-weight="400" font-size="55" transform="matrix(1 0 0 1 1927.09 1574)">require replacement)</text><path d="M1556 951.001C1556 930.014 1573.01 913 1594 913L2717 913C2737.99 913 2755 930.014 2755 951.001L2755 1103C2755 1123.99 2737.99 1141 2717 1141L1594 1141C1573.01 1141 1556 1123.99 1556 1103Z" fill="#DAEEBF" fill-rule="evenodd"/><text fill="#262626" font-family="Arial,Arial_MSFontService,sans-serif" font-weight="400" font-size="64" transform="matrix(1 0 0 1 1638.69 985)">2026/27 teacher workforce estimate: </text><text fill="#262626" font-family="Arial,Arial_MSFontService,sans-serif" font-weight="400" font-size="55" transform="matrix(1 0 0 1 1654.45 1053)">Subjects with supply surpluses use 26/27 </text><text fill="#262626" font-family="Arial,Arial_MSFontService,sans-serif" font-style="italic" font-weight="400" font-size="55" transform="matrix(1 0 0 1 1610.04 1119)">d</text><text fill="#262626" font-family="Arial,Arial_MSFontService,sans-serif" font-style="italic" font-weight="400" font-size="55" transform="matrix(1 0 0 1 1640.4 1119)">emand</text><text fill="#262626" font-family="Arial,Arial_MSFontService,sans-serif" font-weight="400" font-size="55" transform="matrix(1 0 0 1 1807.7 1119)">, those with deficits use 26/27 </text><text fill="#262626" font-family="Arial,Arial_MSFontService,sans-serif" font-style="italic" font-weight="400" font-size="55" transform="matrix(1 0 0 1 2543.32 1119)">supply</text><path d="M842 1350.17C842 1320.8 865.804 1297 895.167 1297L1502.83 1297C1532.2 1297 1556 1320.8 1556 1350.17L1556 1562.83C1556 1592.2 1532.2 1616 1502.83 1616L895.167 1616C865.804 1616 842 1592.2 842 1562.83Z" fill="#FBDEDF" fill-rule="evenodd"/><text fill="#262626" font-family="Arial,Arial_MSFontService,sans-serif" font-weight="400" font-size="55" transform="matrix(1 0 0 1 952.05 1377)">Difference = teacher </text><text fill="#262626" font-family="Arial,Arial_MSFontService,sans-serif" font-weight="400" font-size="55" transform="matrix(1 0 0 1 891.688 1443)">workforce</text><text fill="#262626" font-family="Arial,Arial_MSFontService,sans-serif" font-weight="400" font-size="55" transform="matrix(1 0 0 1 1144.92 1443)">growth needed </text><text fill="#262626" font-family="Arial,Arial_MSFontService,sans-serif" font-weight="400" font-size="55" transform="matrix(1 0 0 1 1001.12 1509)">to meet 2027/28</text><text fill="#262626" font-family="Arial,Arial_MSFontService,sans-serif" font-weight="400" font-size="55" transform="matrix(1 0 0 1 1100.5 1575)">demand</text><path d="M794 950.001C794 929.566 810.566 913 831.001 913L1265 913C1285.43 913 1302 929.566 1302 950.001L1302 1098C1302 1118.43 1285.43 1135 1265 1135L831.001 1135C810.566 1135 794 1118.43 794 1098Z" fill="#DAEEBF" fill-rule="evenodd"/><text fill="#262626" font-family="Arial,Arial_MSFontService,sans-serif" font-weight="400" font-size="55" transform="matrix(1 0 0 1 844.118 1011)">Teacher demand </text><text fill="#262626" font-family="Arial,Arial_MSFontService,sans-serif" font-weight="400" font-size="55" transform="matrix(1 0 0 1 949.351 1077)">2027/28</text><g><g><g><path d="M124.963 26.0417C70.3406 26.0417 26.0599 70.3224 26.0599 124.945 26.0599 179.568 70.3406 223.849 124.963 223.849 179.586 223.849 223.867 179.568 223.867 124.945 223.867 124.943 223.867 124.94 223.867 124.937 223.886 70.3375 179.639 26.0604 125.039 26.0417 125.014 26.0417 124.989 26.0417 124.963 26.0417ZM170.846 133.75 79.0807 133.75 79.0807 116.146 170.846 116.146Z" fill="#0C1C30" transform="matrix(1 0 0 1 1303 899)"/></g></g></g><path d="M3799 1822.17C3799 1789.49 3825.49 1763 3858.17 1763L4256.83 1763C4289.51 1763 4316 1789.49 4316 1822.17L4316 2058.83C4316 2091.51 4289.51 2118 4256.83 2118L3858.17 2118C3825.49 2118 3799 2091.51 3799 2058.83Z" fill="#FFFF66" fill-rule="evenodd"/><text font-family="Arial,Arial_MSFontService,sans-serif" font-weight="700" font-size="64" transform="matrix(1 0 0 1 3916.61 1848)">OUTPUT</text><text font-family="Arial,Arial_MSFontService,sans-serif" font-weight="400" font-size="64" transform="matrix(1 0 0 1 4180.15 1848)">:</text><text font-family="Arial,Arial_MSFontService,sans-serif" font-weight="700" font-size="64" transform="matrix(1 0 0 1 3853.01 1925)">Postgraduate</text><text font-family="Arial,Arial_MSFontService,sans-serif" font-weight="700" font-size="64" transform="matrix(1 0 0 1 3904.58 2002)">ITT trainee </text><text font-family="Arial,Arial_MSFontService,sans-serif" font-weight="700" font-size="64" transform="matrix(1 0 0 1 3858.44 2079)">need 2026/27</text><path d="M2943 1823.33C2943 1790.57 2969.56 1764 3002.33 1764L3507.67 1764C3540.44 1764 3567 1790.57 3567 1823.33L3567 2060.67C3567 2093.43 3540.44 2120 3507.67 2120L3002.33 2120C2969.56 2120 2943 2093.43 2943 2060.67Z" fill="#ECB0D0" fill-rule="evenodd"/><text font-family="Arial,Arial_MSFontService,sans-serif" font-weight="400" font-size="55" transform="matrix(1 0 0 1 3071.31 1830)">Newly qualified </text><text font-family="Arial,Arial_MSFontService,sans-serif" font-weight="400" font-size="55" transform="matrix(1 0 0 1 3022.31 1896)">teachers needed in </text><text font-family="Arial,Arial_MSFontService,sans-serif" font-weight="400" font-size="55" transform="matrix(1 0 0 1 2999.69 1962)">2027/28 having been </text><text font-family="Arial,Arial_MSFontService,sans-serif" font-weight="400" font-size="55" transform="matrix(1 0 0 1 3128.88 2028)">trained via </text><text font-family="Arial,Arial_MSFontService,sans-serif" font-weight="400" font-size="55" transform="matrix(1 0 0 1 3046.1 2094)">postgraduate ITT</text><path d="M2039 1827C2039 1793.86 2065.86 1767 2099 1767L2627 1767C2660.14 1767 2687 1793.86 2687 1827L2687 2067C2687 2100.14 2660.14 2127 2627 2127L2099 2127C2065.86 2127 2039 2100.14 2039 2067Z" fill="#80D6E8" fill-rule="evenodd"/><text fill="#262626" font-family="Arial,Arial_MSFontService,sans-serif" font-weight="400" font-size="55" transform="matrix(1 0 0 1 2144.97 1840)">Teachers entering </text><text fill="#262626" font-family="Arial,Arial_MSFontService,sans-serif" font-weight="400" font-size="55" transform="matrix(1 0 0 1 2124.73 1906)">from other routes in </text><text fill="#262626" font-family="Arial,Arial_MSFontService,sans-serif" font-weight="400" font-size="55" transform="matrix(1 0 0 1 2263.95 1972)">2027/28 </text><text fill="#262626" font-family="Arial,Arial_MSFontService,sans-serif" font-weight="400" font-size="50" transform="matrix(1 0 0 1 2092.95 2034)">(returners, NTSF, NQEs </text><text fill="#262626" font-family="Arial,Arial_MSFontService,sans-serif" font-weight="400" font-size="50" transform="matrix(1 0 0 1 2145.08 2095)">from other sources)</text><path d="M1167 1825.5C1167 1793.19 1193.19 1767 1225.5 1767L1737.5 1767C1769.81 1767 1796 1793.19 1796 1825.5L1796 2059.5C1796 2091.81 1769.81 2118 1737.5 2118L1225.5 2118C1193.19 2118 1167 2091.81 1167 2059.5Z" fill="#F7BEBE" fill-rule="evenodd"/><text fill="#262626" font-family="Arial,Arial_MSFontService,sans-serif" font-weight="400" font-size="55" transform="matrix(1 0 0 1 1222.66 1929)">Teacher entrant need </text><text fill="#262626" font-family="Arial,Arial_MSFontService,sans-serif" font-weight="400" font-size="55" transform="matrix(1 0 0 1 1353.95 1995)">in 2027/28</text><g><g><g><path d="M1917.96 1841.04C1863.34 1841.04 1819.06 1885.32 1819.06 1939.95 1819.06 1994.57 1863.34 2038.85 1917.96 2038.85 1972.59 2038.85 2016.87 1994.57 2016.87 1939.95 2016.87 1939.94 2016.87 1939.94 2016.87 1939.94 2016.89 1885.34 1972.64 1841.06 1918.04 1841.04 1918.01 1841.04 1917.99 1841.04 1917.96 1841.04ZM1963.85 1948.75 1872.08 1948.75 1872.08 1931.15 1963.85 1931.15Z" fill="#0C1C30"/></g></g></g><path d="M2088 1615C2088 1630.19 2085.95 1642.5 2083.42 1642.5L1684.58 1642.5C1682.05 1642.5 1680 1654.81 1680 1670 1680 1654.81 1677.95 1642.5 1675.42 1642.5L1276.58 1642.5C1274.05 1642.5 1272 1630.19 1272 1615" stroke="#0C1C30" stroke-width="10.3125" stroke-linejoin="round" stroke-miterlimit="10" fill="none" fill-rule="evenodd"/><path d="M2711 1947C2711 1892.32 2757.11 1848 2814 1848 2870.89 1848 2917 1892.32 2917 1947 2917 2001.68 2870.89 2046 2814 2046 2757.11 2046 2711 2001.68 2711 1947Z" fill="#0C1C30" fill-rule="evenodd"/><path d="M2764 1920 2862.83 1920" stroke="#FFFFFF" stroke-width="27.5" stroke-miterlimit="8" fill="#BFBFBF" fill-rule="evenodd"/><path d="M2764 1969 2862.83 1969" stroke="#FFFFFF" stroke-width="27.5" stroke-miterlimit="8" fill="#BFBFBF" fill-rule="evenodd"/><path d="M1793 1142C1793 1159.12 1790.69 1173 1787.83 1173L1389.67 1173C1386.81 1173 1384.5 1186.88 1384.5 1204 1384.5 1186.88 1382.19 1173 1379.33 1173L981.166 1173C978.313 1173 976 1159.12 976 1142" stroke="#0C1C30" stroke-width="10.3125" stroke-linejoin="round" stroke-miterlimit="10" fill="none" fill-rule="evenodd"/><path d="M5.15625-1.05526e-05 5.15661 176.34-5.15589 176.34-5.15625 1.05526e-05ZM15.4691 176.34C15.4691 184.883 8.54355 191.809 0.00039255 191.809-8.54276 191.809-15.4684 184.884-15.4684 176.34-15.4684 167.797-8.54283 160.872 0.000329235 160.872 8.54348 160.872 15.4691 167.797 15.4691 176.34Z" fill="#BFBFBF" transform="matrix(1 0 0 -1 3672 2158.34)"/><rect x="3117.5" y="2159.5" width="1163" height="161" stroke="#BFBFBF" stroke-width="6.875" stroke-linejoin="round" stroke-miterlimit="10" fill="#D9D9D9"/><text fill="#0D0D0D" font-family="Arial,Arial_MSFontService,sans-serif" font-weight="400" font-size="50" transform="matrix(1 0 0 1 3173.85 2228)">Scale up to account for trainees not completing </text><text fill="#0D0D0D" font-family="Arial,Arial_MSFontService,sans-serif" font-weight="400" font-size="50" transform="matrix(1 0 0 1 3225.71 2289)">ITT or gaining posts immediately after ITT.</text><rect x="3010.5" y="888.5" width="1253" height="498" stroke="#BFBFBF" stroke-width="6.875" stroke-linejoin="round" stroke-miterlimit="10" fill="#D9D9D9"/><text fill="#262626" font-family="Arial,Arial_MSFontService,sans-serif" font-weight="400" font-size="50" transform="matrix(1 0 0 1 3066.89 974)">By using a 26/27 teacher supply estimate for deficit </text><text fill="#262626" font-family="Arial,Arial_MSFontService,sans-serif" font-weight="400" font-size="50" transform="matrix(1 0 0 1 3055.73 1035)">subjects, any estimated undersupply is corrected for </text><text fill="#262626" font-family="Arial,Arial_MSFontService,sans-serif" font-weight="400" font-size="50" transform="matrix(1 0 0 1 3247.08 1095)">by inflating postgraduate</text><text fill="#262626" font-family="Arial,Arial_MSFontService,sans-serif" font-weight="400" font-size="50" transform="matrix(1 0 0 1 3809.69 1095)">ITT need. </text><text fill="#262626" font-family="Arial,Arial_MSFontService,sans-serif" font-weight="400" font-size="50" transform="matrix(1 0 0 1 3069.48 1216)">The opposite is true for subjects with surpluses. By </text><text fill="#262626" font-family="Arial,Arial_MSFontService,sans-serif" font-weight="400" font-size="50" transform="matrix(1 0 0 1 3062.03 1277)">using estimated teacher</text><text fill="#262626" font-family="Arial,Arial_MSFontService,sans-serif" font-weight="400" font-size="50" transform="matrix(1 0 0 1 3610.31 1277)">demand we avoid deflating </text><text fill="#262626" font-family="Arial,Arial_MSFontService,sans-serif" font-weight="400" font-size="50" transform="matrix(1 0 0 1 3167.15 1337)">PGITT need because of supply surpluses.</text><path d="M7.8119e-06-5.15625 238.207-5.15589 238.207 5.15661-7.8119e-06 5.15625ZM238.207-15.4684C246.751-15.4684 253.676-8.54277 253.676 0.000384328 253.676 8.54354 246.751 15.4691 238.207 15.4691 229.664 15.4691 222.739 8.54349 222.739 0.000337457 222.739-8.54282 229.664-15.4684 238.207-15.4684Z" fill="#BFBFBF" transform="matrix(-1 0 0 1 3009.21 1031)"/><path d="M421 148.668C421 123.446 441.446 103 466.667 103L1747.33 103C1772.55 103 1793 123.446 1793 148.668L1793 331.333C1793 356.554 1772.55 377 1747.33 377L466.667 377C441.446 377 421 356.554 421 331.333Z" fill="#92D050" fill-rule="evenodd"/><text fill="#262626" font-family="Arial,Arial_MSFontService,sans-serif" font-weight="400" font-size="55" transform="matrix(1 0 0 1 482.009 161)">Teacher demand trajectory calculated from </text><text fill="#262626" font-family="Arial,Arial_MSFontService,sans-serif" font-weight="700" font-size="55" transform="matrix(1 0 0 1 1534.09 161)">2024/25 </text><text fill="#262626" font-family="Arial,Arial_MSFontService,sans-serif" font-weight="700" font-size="55" transform="matrix(1 0 0 1 495.576 227)">teacher numbers </text><text fill="#262626" font-family="Arial,Arial_MSFontService,sans-serif" font-weight="400" font-size="55" transform="matrix(1 0 0 1 953.337 227)">and </text><text fill="#262626" font-family="Arial,Arial_MSFontService,sans-serif" font-weight="700" font-size="55" transform="matrix(1 0 0 1 1059.9 227)">projected pupil numbers</text><text fill="#262626" font-family="Arial,Arial_MSFontService,sans-serif" font-weight="400" font-size="55" transform="matrix(1 0 0 1 1702.71 227)">, </text><text fill="#262626" font-family="Arial,Arial_MSFontService,sans-serif" font-weight="400" font-size="55" transform="matrix(1 0 0 1 584.951 293)">assuming increasing pupil numbers require </text><text fill="#262626" font-family="Arial,Arial_MSFontService,sans-serif" font-weight="400" font-size="55" transform="matrix(1 0 0 1 684.937 359)">additional teachers, and vice versa</text><path d="M591 571.334C591 552.924 605.924 538 624.334 538L1472.67 538C1491.08 538 1506 552.924 1506 571.334L1506 704.666C1506 723.076 1491.08 738 1472.67 738L624.334 738C605.924 738 591 723.076 591 704.666Z" fill="#FFFF66" fill-rule="evenodd"/><text font-family="Arial,Arial_MSFontService,sans-serif" font-weight="700" font-size="64" transform="matrix(1 0 0 1 646.943 623)">OUTPUT</text><text font-family="Arial,Arial_MSFontService,sans-serif" font-weight="400" font-size="64" transform="matrix(1 0 0 1 910.484 623)">:</text><text font-family="Arial,Arial_MSFontService,sans-serif" font-weight="700" font-size="64" transform="matrix(1 0 0 1 946.005 623)">T</text><text font-family="Arial,Arial_MSFontService,sans-serif" font-weight="700" font-size="64" transform="matrix(1 0 0 1 980.197 623)">eacher demand </text><text font-family="Arial,Arial_MSFontService,sans-serif" font-weight="700" font-size="64" transform="matrix(1 0 0 1 691.264 700)">trajectory up to 2027/28</text><g><g><g><path d="M124.464 25.9375C70.0592 25.9375 25.9556 70.0411 25.9556 124.445 25.9556 178.85 70.0592 222.953 124.464 222.953 178.868 222.953 222.972 178.85 222.972 124.445 222.972 124.442 222.972 124.438 222.972 124.435 222.99 70.0551 178.921 25.9562 124.541 25.9375 124.515 25.9375 124.49 25.9375 124.464 25.9375ZM172.757 133.215 133.233 133.215 133.233 172.728 115.694 172.728 115.694 133.205 76.1706 133.205 76.1706 115.666 115.694 115.666 115.694 76.1421 133.233 76.1421 133.233 115.666 172.757 115.666Z" fill="#0C1C30" transform="matrix(1.00402 0 0 1 1559 1333)"/></g></g></g><text font-family="Arial,Arial_MSFontService,sans-serif" font-weight="400" font-size="50" transform="matrix(1 0 0 1 121.029 2214)">NTSF = new to state</text><text font-family="Arial,Arial_MSFontService,sans-serif" font-weight="400" font-size="50" transform="matrix(1 0 0 1 581.081 2214)">-</text><text font-family="Arial,Arial_MSFontService,sans-serif" font-weight="400" font-size="50" transform="matrix(1 0 0 1 597.695 2214)">funded sector entrants</text><text font-family="Arial,Arial_MSFontService,sans-serif" font-weight="400" font-size="50" transform="matrix(1 0 0 1 121.029 2275)">NQEs = newly qualified entrants</text><text font-family="Arial,Arial_MSFontService,sans-serif" font-weight="400" font-size="50" transform="matrix(1 0 0 1 121.029 2335)">ITT = initial teacher training</text><path d="M1046.02 377 1046.02 469.997 1029.98 469.997 1029.98 377ZM1078.1 461.976 1038 542.185 997.896 461.977Z" fill="#0C1C30"/><path d="M1046.02 738 1046.02 832.274 1029.98 832.274 1029.98 738ZM1078.1 824.253 1038 904.462 997.896 824.253Z" fill="#0C1C30"/><path d="M3567 1941.98 3732.38 1941.98 3732.38 1958.02 3567 1958.02ZM3724.36 1909.9 3804.56 1950 3724.36 1990.1Z" fill="#0C1C30"/><rect x="1342.5" y="1182.5" width="84.0002" height="95.9999" stroke="#FFFFFF" stroke-width="6.875" stroke-linejoin="round" stroke-miterlimit="10" fill="#FFFFFF"/><path d="M1392.02 1172.93 1392.46 1225.7 1376.41 1225.83 1375.98 1173.07ZM1424.47 1217.41 1385.03 1297.95 1344.27 1218.07Z" fill="#0C1C30"/><rect x="1641.5" y="1653.5" width="83.0002" height="96.9999" stroke="#FFFFFF" stroke-width="6.875" stroke-linejoin="round" stroke-miterlimit="10" fill="#FFFFFF"/><path d="M1690.02 1645.97 1690.17 1690.16 1674.13 1690.21 1673.98 1646.03ZM1722.23 1682.03 1682.39 1762.37 1642.02 1682.3Z" fill="#0C1C30"/></g></svg>