<svg width="4297" height="2354" xmlns="http://www.w3.org/2000/svg" xmlns:xlink="http://www.w3.org/1999/xlink" xml:space="preserve" overflow="hidden"><g transform="translate(-55 -43)"><rect x="60.9998" y="837" width="4286" height="1555" stroke="#A6A6A6" stroke-width="10.3125" stroke-linecap="square" stroke-linejoin="round" stroke-miterlimit="10" stroke-dasharray="30.9375 10.3125" fill="none"/><text fill="#BFBFBF" font-family="Arial,Arial_MSFontService,sans-serif" font-weight="700" font-size="64" transform="matrix(1 0 0 1 94.4304 916)">Step 2 </text><text fill="#BFBFBF" font-family="Arial,Arial_MSFontService,sans-serif" font-weight="700" font-size="64" transform="matrix(1 0 0 1 304.118 916)">–</text><text fill="#BFBFBF" font-family="Arial,Arial_MSFontService,sans-serif" font-weight="700" font-size="64" transform="matrix(1 0 0 1 94.4304 993)">calculate</text><text fill="#BFBFBF" font-family="Arial,Arial_MSFontService,sans-serif" font-weight="700" font-size="64" transform="matrix(1 0 0 1 94.4304 1070)">postgraduate </text><text fill="#BFBFBF" font-family="Arial,Arial_MSFontService,sans-serif" font-weight="700" font-size="64" transform="matrix(1 0 0 1 94.4304 1147)">initial teacher</text><text fill="#BFBFBF" font-family="Arial,Arial_MSFontService,sans-serif" font-weight="700" font-size="64" transform="matrix(1 0 0 1 94.4304 1224)">trainee need</text><text fill="#BFBFBF" font-family="Arial,Arial_MSFontService,sans-serif" font-weight="700" font-size="64" transform="matrix(1 0 0 1 94.4304 1301)">for 2026/27</text><rect x="60.9998" y="48.0001" width="4286" height="733" stroke="#A6A6A6" stroke-width="10.3125" stroke-linecap="square" stroke-linejoin="round" stroke-miterlimit="10" stroke-dasharray="30.9375 10.3125" fill="none"/><text fill="#BFBFBF" font-family="Arial,Arial_MSFontService,sans-serif" font-weight="700" font-size="64" transform="matrix(1 0 0 1 94.4304 126)">Step 1 </text><text fill="#BFBFBF" font-family="Arial,Arial_MSFontService,sans-serif" font-weight="700" font-size="64" transform="matrix(1 0 0 1 304.118 126)">–</text><text fill="#BFBFBF" font-family="Arial,Arial_MSFontService,sans-serif" font-weight="700" font-size="64" transform="matrix(1 0 0 1 94.4304 203)">calculate</text><text fill="#BFBFBF" font-family="Arial,Arial_MSFontService,sans-serif" font-weight="700" font-size="64" transform="matrix(1 0 0 1 94.4304 280)">teacher</text><text fill="#BFBFBF" font-family="Arial,Arial_MSFontService,sans-serif" font-weight="700" font-size="64" transform="matrix(1 0 0 1 94.4304 357)">demand</text><text fill="#BFBFBF" font-family="Arial,Arial_MSFontService,sans-serif" font-weight="700" font-size="64" transform="matrix(1 0 0 1 94.4304 434)">trajectory</text><text fill="#BFBFBF" font-family="Arial,Arial_MSFontService,sans-serif" font-weight="700" font-size="64" transform="matrix(1 0 0 1 94.4304 511)">from</text><text fill="#BFBFBF" font-family="Arial,Arial_MSFontService,sans-serif" font-weight="700" font-size="64" transform="matrix(1 0 0 1 94.4304 588)">2024/25</text><text fill="#BFBFBF" font-family="Arial,Arial_MSFontService,sans-serif" font-weight="700" font-size="64" transform="matrix(1 0 0 1 94.4304 665)">to 2027/28</text><path d="M1813 1349.83C1813 1320.65 1836.65 1297 1865.83 1297L2493.17 1297C2522.35 1297 2546 1320.65 2546 1349.83L2546 1561.17C2546 1590.35 2522.35 1614 2493.17 1614L1865.83 1614C1836.65 1614 1813 1590.35 1813 1561.17Z" fill="#FBDEDF" fill-rule="evenodd"/><text fill="#262626" font-family="Arial,Arial_MSFontService,sans-serif" font-weight="400" font-size="55" transform="matrix(1 0 0 1 1933 1376)">Teacher leavers and </text><text fill="#262626" font-family="Arial,Arial_MSFontService,sans-serif" font-weight="400" font-size="55" transform="matrix(1 0 0 1 1908.76 1442)">working hour losses in </text><text fill="#262626" font-family="Arial,Arial_MSFontService,sans-serif" font-weight="400" font-size="55" transform="matrix(1 0 0 1 1893.29 1508)">2027/28 (assume these </text><text fill="#262626" font-family="Arial,Arial_MSFontService,sans-serif" font-weight="400" font-size="55" transform="matrix(1 0 0 1 1927.09 1574)">require replacement)</text><path d="M1556 951.001C1556 930.013 1573.01 913 1594 913L2666 913C2686.99 913 2704 930.013 2704 951.001L2704 1103C2704 1123.99 2686.99 1141 2666 1141L1594 1141C1573.01 1141 1556 1123.99 1556 1103Z" fill="#DAEEBF" fill-rule="evenodd"/><text fill="#262626" font-family="Arial,Arial_MSFontService,sans-serif" font-weight="400" font-size="64" transform="matrix(1 0 0 1 1613.22 990)">2026/27 teacher workforce estimate: </text><text fill="#262626" font-family="Arial,Arial_MSFontService,sans-serif" font-weight="400" font-size="50" transform="matrix(1 0 0 1 1669.36 1054)">Subjects with supply surpluses use 26/27 </text><text fill="#262626" font-family="Arial,Arial_MSFontService,sans-serif" font-style="italic" font-weight="400" font-size="50" transform="matrix(1 0 0 1 1629.26 1115)">d</text><text fill="#262626" font-family="Arial,Arial_MSFontService,sans-serif" font-style="italic" font-weight="400" font-size="50" transform="matrix(1 0 0 1 1657.33 1115)">emand</text><text fill="#262626" font-family="Arial,Arial_MSFontService,sans-serif" font-weight="400" font-size="50" transform="matrix(1 0 0 1 1811.45 1115)">, those with deficits use 26/27 </text><text fill="#262626" font-family="Arial,Arial_MSFontService,sans-serif" font-style="italic" font-weight="400" font-size="50" transform="matrix(1 0 0 1 2485.2 1115)">supply</text><path d="M842 1350.17C842 1320.8 865.804 1297 895.167 1297L1502.83 1297C1532.2 1297 1556 1320.8 1556 1350.17L1556 1562.83C1556 1592.2 1532.2 1616 1502.83 1616L895.167 1616C865.804 1616 842 1592.2 842 1562.83Z" fill="#FBDEDF" fill-rule="evenodd"/><text fill="#262626" font-family="Arial,Arial_MSFontService,sans-serif" font-weight="400" font-size="55" transform="matrix(1 0 0 1 952.05 1377)">Difference = teacher </text><text fill="#262626" font-family="Arial,Arial_MSFontService,sans-serif" font-weight="400" font-size="55" transform="matrix(1 0 0 1 891.688 1443)">workforce</text><text fill="#262626" font-family="Arial,Arial_MSFontService,sans-serif" font-weight="400" font-size="55" transform="matrix(1 0 0 1 1144.92 1443)">growth needed </text><text fill="#262626" font-family="Arial,Arial_MSFontService,sans-serif" font-weight="400" font-size="55" transform="matrix(1 0 0 1 1001.12 1509)">to meet 2027/28</text><text fill="#262626" font-family="Arial,Arial_MSFontService,sans-serif" font-weight="400" font-size="55" transform="matrix(1 0 0 1 1100.5 1575)">demand</text><path d="M794 950.001C794 929.566 810.566 913 831.001 913L1265 913C1285.43 913 1302 929.566 1302 950.001L1302 1098C1302 1118.43 1285.43 1135 1265 1135L831.001 1135C810.566 1135 794 1118.43 794 1098Z" fill="#DAEEBF" fill-rule="evenodd"/><text fill="#262626" font-family="Arial,Arial_MSFontService,sans-serif" font-weight="400" font-size="55" transform="matrix(1 0 0 1 844.118 1011)">Teacher demand </text><text fill="#262626" font-family="Arial,Arial_MSFontService,sans-serif" font-weight="400" font-size="55" transform="matrix(1 0 0 1 949.351 1077)">2027/28</text><g><g><g><path d="M124.963 26.0417C70.3406 26.0417 26.0599 70.3224 26.0599 124.945 26.0599 179.568 70.3406 223.849 124.963 223.849 179.586 223.849 223.867 179.568 223.867 124.945 223.867 124.943 223.867 124.94 223.867 124.937 223.886 70.3375 179.639 26.0604 125.039 26.0417 125.014 26.0417 124.989 26.0417 124.963 26.0417ZM170.846 133.75 79.0807 133.75 79.0807 116.146 170.846 116.146Z" fill="#0C1C30" transform="matrix(1 0 0 1 1303 899)"/></g></g></g><path d="M3799 1822.17C3799 1789.49 3825.49 1763 3858.17 1763L4256.83 1763C4289.51 1763 4316 1789.49 4316 1822.17L4316 2058.83C4316 2091.51 4289.51 2118 4256.83 2118L3858.17 2118C3825.49 2118 3799 2091.51 3799 2058.83Z" fill="#FFFF66" fill-rule="evenodd"/><text font-family="Arial,Arial_MSFontService,sans-serif" font-weight="700" font-size="64" transform="matrix(1 0 0 1 3898.85 1848)">OUTPUT </text><text font-family="Arial,Arial_MSFontService,sans-serif" font-weight="700" font-size="64" transform="matrix(1 0 0 1 4180.15 1848)">–</text><text font-family="Arial,Arial_MSFontService,sans-serif" font-weight="700" font-size="64" transform="matrix(1 0 0 1 3853.01 1925)">Postgraduate</text><text font-family="Arial,Arial_MSFontService,sans-serif" font-weight="700" font-size="64" transform="matrix(1 0 0 1 3904.58 2002)">ITT trainee </text><text font-family="Arial,Arial_MSFontService,sans-serif" font-weight="700" font-size="64" transform="matrix(1 0 0 1 3858.44 2079)">need 2026/27</text><path d="M2943 1823.33C2943 1790.57 2969.56 1764 3002.33 1764L3507.67 1764C3540.44 1764 3567 1790.57 3567 1823.33L3567 2060.67C3567 2093.43 3540.44 2120 3507.67 2120L3002.33 2120C2969.56 2120 2943 2093.43 2943 2060.67Z" fill="#ECB0D0" fill-rule="evenodd"/><text font-family="Arial,Arial_MSFontService,sans-serif" font-weight="400" font-size="55" transform="matrix(1 0 0 1 3071.31 1830)">Newly qualified </text><text font-family="Arial,Arial_MSFontService,sans-serif" font-weight="400" font-size="55" transform="matrix(1 0 0 1 3022.31 1896)">teachers needed in </text><text font-family="Arial,Arial_MSFontService,sans-serif" font-weight="400" font-size="55" transform="matrix(1 0 0 1 2999.69 1962)">2027/28 having been </text><text font-family="Arial,Arial_MSFontService,sans-serif" font-weight="400" font-size="55" transform="matrix(1 0 0 1 3128.88 2028)">trained via </text><text font-family="Arial,Arial_MSFontService,sans-serif" font-weight="400" font-size="55" transform="matrix(1 0 0 1 3046.1 2094)">postgraduate ITT</text><path d="M2046 1827C2046 1793.86 2072.86 1767 2106 1767L2615 1767C2648.14 1767 2675 1793.86 2675 1827L2675 2067C2675 2100.14 2648.14 2127 2615 2127L2106 2127C2072.86 2127 2046 2100.14 2046 2067Z" fill="#80D6E8" fill-rule="evenodd"/><text fill="#262626" font-family="Arial,Arial_MSFontService,sans-serif" font-weight="400" font-size="55" transform="matrix(1 0 0 1 2142.55 1843)">Teachers entering </text><text fill="#262626" font-family="Arial,Arial_MSFontService,sans-serif" font-weight="400" font-size="55" transform="matrix(1 0 0 1 2122.31 1909)">from other routes in </text><text fill="#262626" font-family="Arial,Arial_MSFontService,sans-serif" font-weight="400" font-size="55" transform="matrix(1 0 0 1 2261.53 1975)">2027/28 </text><text fill="#262626" font-family="Arial,Arial_MSFontService,sans-serif" font-weight="400" font-size="48" transform="matrix(1 0 0 1 2102.53 2035)">(returners, NTSF, NQEs </text><text fill="#262626" font-family="Arial,Arial_MSFontService,sans-serif" font-weight="400" font-size="48" transform="matrix(1 0 0 1 2151.53 2093)">from other sources)</text><path d="M1167 1825.5C1167 1793.19 1193.19 1767 1225.5 1767L1737.5 1767C1769.81 1767 1796 1793.19 1796 1825.5L1796 2059.5C1796 2091.81 1769.81 2118 1737.5 2118L1225.5 2118C1193.19 2118 1167 2091.81 1167 2059.5Z" fill="#F7BEBE" fill-rule="evenodd"/><text fill="#262626" font-family="Arial,Arial_MSFontService,sans-serif" font-weight="400" font-size="55" transform="matrix(1 0 0 1 1222.66 1929)">Teacher entrant need </text><text fill="#262626" font-family="Arial,Arial_MSFontService,sans-serif" font-weight="400" font-size="55" transform="matrix(1 0 0 1 1353.95 1995)">in 2027/28</text><g><g><g><path d="M1920.96 1841.04C1866.34 1841.04 1822.06 1885.32 1822.06 1939.95 1822.06 1994.57 1866.34 2038.85 1920.96 2038.85 1975.59 2038.85 2019.87 1994.57 2019.87 1939.95 2019.87 1939.94 2019.87 1939.94 2019.87 1939.94 2019.89 1885.34 1975.64 1841.06 1921.04 1841.04 1921.01 1841.04 1920.99 1841.04 1920.96 1841.04ZM1966.85 1948.75 1875.08 1948.75 1875.08 1931.15 1966.85 1931.15Z" fill="#0C1C30"/></g></g></g><g><g><g><path d="M87.1507 13.6594 87.1507 158.505 69.9069 141.271C67.6598 139.024 64.0165 139.024 61.7694 141.271 59.5223 143.518 59.5223 147.161 61.7694 149.408L88.8944 176.506C91.0346 178.753 94.5911 178.84 96.8382 176.7 96.9042 176.637 96.9689 176.572 97.0319 176.506L124.138 149.404C126.385 147.264 126.471 143.708 124.331 141.461 124.268 141.395 124.204 141.33 124.138 141.267 121.997 139.02 118.441 138.933 116.194 141.073 116.128 141.136 116.063 141.201 116 141.267L98.766 158.501 98.766 13.6594C98.766 10.4492 96.1637 7.84687 92.9535 7.84687 89.7432 7.84687 87.141 10.4492 87.141 13.6594Z" stroke="#0C1C30" stroke-width="1.9375" fill="#0C1C30" transform="matrix(-2.074e-16 -1.12903 1 -1.83697e-16 3590 2052)"/></g></g></g><path d="M3717.5 1898.5 3776.5 1947 3717.5 1995.5Z" stroke="#051224" stroke-width="6.875" stroke-linejoin="round" stroke-miterlimit="10" fill="#0C1C30" fill-rule="evenodd"/><path d="M2708 1947C2708 1892.32 2753.89 1848 2810.5 1848 2867.11 1848 2913 1892.32 2913 1947 2913 2001.68 2867.11 2046 2810.5 2046 2753.89 2046 2708 2001.68 2708 1947Z" fill="#0C1C30" fill-rule="evenodd"/><path d="M2761 1920 2859.83 1920" stroke="#FFFFFF" stroke-width="27.5" stroke-miterlimit="8" fill="#BFBFBF" fill-rule="evenodd"/><path d="M2761 1969 2859.83 1969" stroke="#FFFFFF" stroke-width="27.5" stroke-miterlimit="8" fill="#BFBFBF" fill-rule="evenodd"/><path d="M2088 1642C2088 1657.19 2085.95 1669.5 2083.42 1669.5L1684.58 1669.5C1682.05 1669.5 1680 1681.81 1680 1697 1680 1681.81 1677.95 1669.5 1675.42 1669.5L1276.58 1669.5C1274.05 1669.5 1272 1657.19 1272 1642" stroke="#0C1C30" stroke-width="10.3125" stroke-linejoin="round" stroke-miterlimit="10" fill="none" fill-rule="evenodd"/><path d="M1730.5 1697.5 1681.5 1753.5 1632.5 1697.5Z" stroke="#051224" stroke-width="6.875" stroke-linejoin="round" stroke-miterlimit="10" fill="#0C1C30" fill-rule="evenodd"/><path d="M1792 1162C1792 1179.12 1789.69 1193 1786.83 1193L1388.67 1193C1385.81 1193 1383.5 1206.88 1383.5 1224 1383.5 1206.88 1381.19 1193 1378.33 1193L980.166 1193C977.313 1193 975 1179.12 975 1162" stroke="#0C1C30" stroke-width="10.3125" stroke-linejoin="round" stroke-miterlimit="10" fill="none" fill-rule="evenodd"/><path d="M1434.5 1219.5 1385.5 1274.5 1336.5 1219.5Z" stroke="#051224" stroke-width="6.875" stroke-linejoin="round" stroke-miterlimit="10" fill="#0C1C30" fill-rule="evenodd"/><path d="M5.15625-1.05526e-05 5.15661 176.34-5.15589 176.34-5.15625 1.05526e-05ZM15.4691 176.34C15.4691 184.883 8.54355 191.809 0.00039255 191.809-8.54276 191.809-15.4684 184.884-15.4684 176.34-15.4684 167.797-8.54283 160.872 0.000329235 160.872 8.54348 160.872 15.4691 167.797 15.4691 176.34Z" fill="#BFBFBF" transform="matrix(1 0 0 -1 3672 2158.34)"/><rect x="3117.5" y="2159.5" width="1163" height="161" stroke="#BFBFBF" stroke-width="6.875" stroke-linejoin="round" stroke-miterlimit="10" fill="#D9D9D9"/><text fill="#0D0D0D" font-family="Arial,Arial_MSFontService,sans-serif" font-weight="400" font-size="50" transform="matrix(1 0 0 1 3173.85 2228)">Scale up to account for trainees not completing </text><text fill="#0D0D0D" font-family="Arial,Arial_MSFontService,sans-serif" font-weight="400" font-size="50" transform="matrix(1 0 0 1 3225.71 2289)">ITT or gaining posts immediately after ITT.</text><rect x="3010.5" y="888.5" width="1253" height="498" stroke="#BFBFBF" stroke-width="6.875" stroke-linejoin="round" stroke-miterlimit="10" fill="#D9D9D9"/><text fill="#262626" font-family="Arial,Arial_MSFontService,sans-serif" font-weight="400" font-size="50" transform="matrix(1 0 0 1 3066.89 974)">By using a 26/27 teacher supply estimate for deficit </text><text fill="#262626" font-family="Arial,Arial_MSFontService,sans-serif" font-weight="400" font-size="50" transform="matrix(1 0 0 1 3055.73 1035)">subjects, any estimated undersupply is corrected for </text><text fill="#262626" font-family="Arial,Arial_MSFontService,sans-serif" font-weight="400" font-size="50" transform="matrix(1 0 0 1 3247.08 1095)">by inflating postgraduate</text><text fill="#262626" font-family="Arial,Arial_MSFontService,sans-serif" font-weight="400" font-size="50" transform="matrix(1 0 0 1 3809.69 1095)">ITT need. </text><text fill="#262626" font-family="Arial,Arial_MSFontService,sans-serif" font-weight="400" font-size="50" transform="matrix(1 0 0 1 3069.48 1216)">The opposite is true for subjects with surpluses. By </text><text fill="#262626" font-family="Arial,Arial_MSFontService,sans-serif" font-weight="400" font-size="50" transform="matrix(1 0 0 1 3062.03 1277)">using estimated teacher</text><text fill="#262626" font-family="Arial,Arial_MSFontService,sans-serif" font-weight="400" font-size="50" transform="matrix(1 0 0 1 3610.31 1277)">demand we avoid deflating </text><text fill="#262626" font-family="Arial,Arial_MSFontService,sans-serif" font-weight="400" font-size="50" transform="matrix(1 0 0 1 3167.15 1337)">PGITT need because of supply surpluses.</text><path d="M6.52925e-06-5.15625 285.003-5.15589 285.003 5.15661-6.52925e-06 5.15625ZM285.003-15.4684C293.546-15.4684 300.471-8.54277 300.471 0.00038048 300.471 8.54354 293.546 15.4691 285.002 15.4691 276.459 15.4691 269.534 8.5435 269.534 0.000341305 269.534-8.54281 276.459-15.4684 285.003-15.4684Z" fill="#BFBFBF" transform="matrix(-1 0 0 1 3010 1027)"/><path d="M421 148.667C421 123.446 441.446 103 466.667 103L1629.33 103C1654.55 103 1675 123.446 1675 148.667L1675 331.333C1675 356.554 1654.55 377 1629.33 377L466.667 377C441.446 377 421 356.554 421 331.333Z" fill="#92D050" fill-rule="evenodd"/><text fill="#262626" font-family="Arial,Arial_MSFontService,sans-serif" font-weight="400" font-size="55" transform="matrix(1 0 0 1 529.873 161)">Teacher demand trajectory calculated from </text><text fill="#262626" font-family="Arial,Arial_MSFontService,sans-serif" font-weight="400" font-size="55" transform="matrix(1 0 0 1 497.033 227)">2024/25 teacher numbers and projected pupil </text><text fill="#262626" font-family="Arial,Arial_MSFontService,sans-serif" font-weight="400" font-size="55" transform="matrix(1 0 0 1 497.033 293)">numbers, assuming increasing pupil numbers </text><text fill="#262626" font-family="Arial,Arial_MSFontService,sans-serif" font-weight="400" font-size="55" transform="matrix(1 0 0 1 533.402 359)">require additional teachers, and vice versa</text><path d="M591 571.334C591 552.924 605.924 538 624.334 538L1472.67 538C1491.08 538 1506 552.924 1506 571.334L1506 704.666C1506 723.076 1491.08 738 1472.67 738L624.334 738C605.924 738 591 723.076 591 704.666Z" fill="#FFFF66" fill-rule="evenodd"/><text font-family="Arial,Arial_MSFontService,sans-serif" font-weight="700" font-size="64" transform="matrix(1 0 0 1 635.679 623)">OUTPUT </text><text font-family="Arial,Arial_MSFontService,sans-serif" font-weight="700" font-size="64" transform="matrix(1 0 0 1 916.981 623)">–</text><text font-family="Arial,Arial_MSFontService,sans-serif" font-weight="700" font-size="64" transform="matrix(1 0 0 1 970.263 623)">teacher demand </text><text font-family="Arial,Arial_MSFontService,sans-serif" font-weight="700" font-size="64" transform="matrix(1 0 0 1 691.252 700)">trajectory up to 2027/28</text><g><g><g><path d="M124.464 25.9375C70.0592 25.9375 25.9556 70.0411 25.9556 124.445 25.9556 178.85 70.0592 222.953 124.464 222.953 178.868 222.953 222.972 178.85 222.972 124.445 222.972 124.442 222.972 124.438 222.972 124.435 222.99 70.0551 178.921 25.9562 124.541 25.9375 124.515 25.9375 124.49 25.9375 124.464 25.9375ZM172.757 133.215 133.233 133.215 133.233 172.728 115.694 172.728 115.694 133.205 76.1706 133.205 76.1706 115.666 115.694 115.666 115.694 76.1421 133.233 76.1421 133.233 115.666 172.757 115.666Z" fill="#0C1C30" transform="matrix(1.00402 0 0 1 1559 1333)"/></g></g></g><g><g><g><path d="M66.066 10.3547 66.066 120.157 52.9941 107.093C51.2906 105.389 48.5288 105.389 46.8253 107.093 45.1219 108.796 45.1219 111.558 46.8253 113.261L67.3879 133.803C69.0102 135.507 71.7063 135.573 73.4097 133.95 73.4598 133.903 73.5089 133.854 73.5566 133.803L94.1045 113.258C95.8079 111.636 95.8737 108.94 94.2514 107.237 94.2036 107.187 94.1546 107.137 94.1045 107.09 92.4821 105.386 89.786 105.32 88.0826 106.943 88.0325 106.991 87.9835 107.04 87.9357 107.09L74.8712 120.154 74.8712 10.3547C74.8712 7.92121 72.8985 5.94845 70.4649 5.94845 68.0313 5.94845 66.0586 7.92121 66.0586 10.3547Z" stroke="#0C1C30" stroke-width="1.46875" fill="#0C1C30" transform="matrix(1.48936 0 0 1 943 765)"/></g></g></g><path d="M1097.5 861.5 1048.5 906.5 999.5 861.5Z" stroke="#051224" stroke-width="6.875" stroke-linejoin="round" stroke-miterlimit="10" fill="#0C1C30" fill-rule="evenodd"/><g><g><g><path d="M65.5974 10.2813 65.5974 119.305 52.6182 106.333C50.9268 104.642 48.1846 104.642 46.4932 106.333 44.8018 108.024 44.8018 110.767 46.4932 112.458L66.9099 132.854C68.5208 134.546 71.1977 134.611 72.8891 133 72.9388 132.953 72.9875 132.904 73.0349 132.854L93.437 112.455C95.1284 110.844 95.1938 108.167 93.5829 106.476 93.5355 106.426 93.4868 106.378 93.437 106.33 91.8262 104.639 89.1493 104.573 87.4579 106.184 87.4081 106.232 87.3594 106.28 87.312 106.33L74.3401 119.302 74.3401 10.2813C74.3401 7.86503 72.3815 5.90626 69.9651 5.90626 67.5488 5.90626 65.5901 7.86503 65.5901 10.2813Z" stroke="#0C1C30" stroke-width="1.45834" fill="#0C1C30" transform="matrix(1.5 0 0 1 943 370)"/></g></g></g><path d="M1097.5 466.5 1048.5 510.5 999.5 466.5Z" stroke="#051224" stroke-width="6.875" stroke-linejoin="round" stroke-miterlimit="10" fill="#0C1C30" fill-rule="evenodd"/><text font-family="Arial,Arial_MSFontService,sans-serif" font-weight="400" font-size="37" transform="matrix(1 0 0 1 2207.27 2209)">NTSF = new to state</text><text font-family="Arial,Arial_MSFontService,sans-serif" font-weight="400" font-size="37" transform="matrix(1 0 0 1 2544.15 2209)">-</text><text font-family="Arial,Arial_MSFontService,sans-serif" font-weight="400" font-size="37" transform="matrix(1 0 0 1 2556.18 2209)">funded sector entrants</text><text font-family="Arial,Arial_MSFontService,sans-serif" font-weight="400" font-size="37" transform="matrix(1 0 0 1 2207.27 2253)">NQEs = newly qualified entrants</text><text font-family="Arial,Arial_MSFontService,sans-serif" font-weight="400" font-size="37" transform="matrix(1 0 0 1 2207.27 2297)">ITT = initial teacher training</text></g></svg>